<svg xmlns="http://www.w3.org/2000/svg" xmlns:xlink="http://www.w3.org/1999/xlink" viewBox="0 0 144.04 144"><defs><style>.a{fill:none;}.b{isolation:isolate;}.c{clip-path:url(#a);}.d{fill:#ff0;}.e{fill-opacity:0.15;}.f{fill:#fff;}.g{opacity:0.25;mix-blend-mode:multiply;}</style><clipPath id="a"><rect class="a" width="144" height="144"/></clipPath></defs><g class="b"><g class="c"><rect class="d" width="144" height="144"/><polygon class="e" points="32.3 99.23 78.34 144 144 144 144.04 60.01 111.86 27.85 76.92 18.53 49.09 23.3 32.23 44.83 28.36 82.28 32.3 99.23"/><path class="f" d="M80.85,80.43h-.37Q76.22,92.09,65,92.09A16.92,16.92,0,0,1,51.4,86q-5.16-6.11-5.16-16.9,0-14,7.14-22.74T70.6,37.58q9.09,0,11.41,7.14h.24l.61-6H96.6q-2.75,26-2.75,34,0,8.53,4.64,8.54,4.88,0,8.06-6.47t3.17-16.9q0-14.3-9.09-23.41t-25.4-9.13q-17.45,0-29,12.18T34.65,67.18q0,17,10.22,26.74t28.23,9.76a59.49,59.49,0,0,0,25.15-5.25v11.66q-10.44,4.45-26.86,4.46-22.51,0-36.65-12.91T20.61,66.94q0-22.21,15.07-37.35T74.5,14.45q22,0,35.56,11.75t13.58,31q0,15.81-8.31,25.36a26.16,26.16,0,0,1-20.56,9.56,14.58,14.58,0,0,1-9.83-3.24A11.5,11.5,0,0,1,80.85,80.43ZM72.73,48.2q-5.49,0-8.94,6.26A29.52,29.52,0,0,0,60.34,69c0,3.91.79,7,2.35,9.13a7.17,7.17,0,0,0,6.08,3.26q5.73,0,9-6.16T81.09,58.7A11.85,11.85,0,0,0,78.81,51,7.47,7.47,0,0,0,72.73,48.2Z"/><path d="M80.85,80.43h-.37Q76.22,92.09,65,92.09A16.92,16.92,0,0,1,51.4,86q-5.16-6.11-5.16-16.9,0-14,7.14-22.74T70.6,37.58q9.09,0,11.41,7.14h.24l.61-6H96.6q-2.75,26-2.75,34,0,8.53,4.64,8.54,4.88,0,8.06-6.47t3.17-16.9q0-14.3-9.09-23.41t-25.4-9.13q-17.45,0-29,12.18T34.65,67.18q0,17,10.22,26.74t28.23,9.76a59.49,59.49,0,0,0,25.15-5.25v11.66q-10.44,4.45-26.86,4.46-22.51,0-36.65-12.91T20.61,66.94q0-22.21,15.07-37.35T74.5,14.45q22,0,35.56,11.75t13.58,31q0,15.81-8.31,25.36a26.16,26.16,0,0,1-20.56,9.56,14.58,14.58,0,0,1-9.83-3.24A11.5,11.5,0,0,1,80.85,80.43ZM72.73,48.2q-5.49,0-8.94,6.26A29.52,29.52,0,0,0,60.34,69c0,3.91.79,7,2.35,9.13a7.17,7.17,0,0,0,6.08,3.26q5.73,0,9-6.16T81.09,58.7A11.85,11.85,0,0,0,78.81,51,7.47,7.47,0,0,0,72.73,48.2Z"/><rect class="g" y="133" width="144" height="11"/></g></g></svg>