<?xml version="1.0" encoding="utf-8"?>
<!-- Generator: Adobe Illustrator 16.0.0, SVG Export Plug-In . SVG Version: 6.00 Build 0)  -->
<!DOCTYPE svg PUBLIC "-//W3C//DTD SVG 1.1//EN" "http://www.w3.org/Graphics/SVG/1.1/DTD/svg11.dtd">
<svg version="1.1" id="Layer_1" xmlns="http://www.w3.org/2000/svg" xmlns:xlink="http://www.w3.org/1999/xlink" x="0px" y="0px"
	 width="720px" height="720px" viewBox="40 -242.256 720 720" enable-background="new 40 -242.256 720 720" xml:space="preserve">
<path fill="#3389FF" d="M584.62,180.562c-7.399-6.17-18.396-5.165-24.562,2.238c-6.166,7.395-5.165,18.391,2.237,24.558
	c7.35,6.129,10.423,19.197,7.135,30.409c-1.989,6.795-6.998,15.224-19.57,16.787c-9.045,1.125-15.914-0.397-21.001-4.682
	c-9.317-7.846-12.113-23.945-12.437-29.703v-14.869c3.871-37.266,43.526-74.261,47.652-121.503
	c3.842-43.909-25.588-50.177-26.986-65.477c-1.149-12.6,24.5-7.564,21.419-19.028C526.438-120.03,400.271-178.075,400.176-178.118
	c-0.095,0.043-126.254,58.084-158.327,177.411c-3.085,11.464,22.564,6.429,21.415,19.028c-1.398,15.3-30.823,21.568-26.99,65.477
	c3.901,44.667,41.559,89.807,47.304,117.13v19.205c-0.343,5.894-3.155,21.911-12.436,29.732c-5.083,4.28-11.957,5.814-20.997,4.682
	c-12.577-1.568-17.585-9.992-19.574-16.787c-3.288-11.212-0.219-24.281,7.134-30.41c7.398-6.17,8.404-17.163,2.237-24.558
	c-6.167-7.403-17.155-8.408-24.562-2.237c-17.953,14.95-25.472,42.515-18.288,67.019c6.762,23.077,24.98,38.619,48.723,41.589
	c3.387,0.422,6.613,0.616,9.666,0.616c18.379,0,30.827-7.014,38.362-13.437c22.688-19.318,24.475-51.539,24.607-55.15
	c0.004-0.21,0.008-0.413,0.008-0.624v-14.665h0.066v-0.992c0-8.536,6.923-15.451,15.451-15.451c8.111,0,14.752,6.265,15.385,14.214
	v140.292c-0.343,5.893-3.155,21.906-12.44,29.723c-5.079,4.285-11.944,5.814-20.993,4.686c-12.577-1.567-17.585-9.996-19.574-16.786
	c-3.288-11.212-0.224-24.285,7.134-30.414c7.399-6.162,8.404-17.159,2.237-24.558c-6.162-7.399-17.159-8.404-24.562-2.233
	c-17.953,14.946-25.472,42.515-18.288,67.015c6.762,23.077,24.976,38.623,48.723,41.593c3.387,0.426,6.609,0.616,9.665,0.616
	c18.383,0,30.828-7.014,38.363-13.433c22.688-19.322,24.475-51.539,24.607-55.154c0.004-0.215,0.008-0.413,0.008-0.628V188.494
	l0.058-0.028v-0.694c0-8.693,7.052-15.749,15.749-15.749c8.427,0,15.286,6.623,15.712,14.937v157.439c0,0.207,0,0.414,0.008,0.625
	c0.133,3.61,1.919,35.831,24.607,55.149c7.539,6.419,19.979,13.433,38.358,13.433c3.053,0,6.278-0.19,9.674-0.612
	c23.743-2.974,41.956-18.516,48.718-41.589c7.185-24.508-0.334-52.072-18.283-67.022c-7.398-6.171-18.4-5.166-24.566,2.237
	c-6.166,7.398-5.165,18.392,2.237,24.562c7.354,6.125,10.422,19.198,7.135,30.41c-1.989,6.791-6.998,15.22-19.566,16.787
	c-9.049,1.133-15.918-0.397-21.005-4.682c-9.314-7.85-12.113-23.946-12.437-29.707V203.595c0.669-7.919,7.296-14.136,15.381-14.136
	c8.536,0,15.451,6.923,15.451,15.451v0.992h0.07v14.665c0,0.215,0,0.418,0.008,0.629c0.133,3.614,1.919,35.831,24.607,55.153
	c7.535,6.415,19.979,13.429,38.358,13.429c3.053,0,6.278-0.194,9.674-0.608c23.739-2.969,41.957-18.511,48.719-41.588
	C610.092,223.078,602.573,195.514,584.62,180.562z"/>
</svg>
