<?xml version="1.0" encoding="utf-8"?>
<!-- Generator: Adobe Illustrator 19.1.0, SVG Export Plug-In . SVG Version: 6.00 Build 0)  -->
<svg version="1.1" id="Layer_1" xmlns="http://www.w3.org/2000/svg" xmlns:xlink="http://www.w3.org/1999/xlink" x="0px" y="0px"
	 viewBox="0 0 64 64" enable-background="new 0 0 64 64" xml:space="preserve">
<g id="Beer_2_">
	<path d="M28.696209,29c-0.5527,0-1,0.4473-1,1v20c0,0.5527992,0.4473,1,1,1c0.5527992,0,1-0.4472008,1-1V30
		C29.696209,29.4473,29.2490082,29,28.696209,29z"/>
	<path d="M38.5800095,29c-0.5527,0-1,0.4473-1,1v20c0,0.5527992,0.4473,1,1,1c0.5527992,0,1-0.4472008,1-1V30
		C39.5800095,29.4473,39.1328087,29,38.5800095,29z"/>
	<path d="M48.696209,29c-0.5527,0-1,0.4473-1,1v20c0,0.5527992,0.4473,1,1,1c0.5527992,0,1-0.4472008,1-1V30
		C49.696209,29.4473,49.2490082,29,48.696209,29z"/>
	<path d="M60.696209,17.4463005c0-2.437501-1.422802-4.7598009-3.6854858-6.1055002
		c0.3339996-2.2343006-0.75-4.6357002-2.9151154-6.3144002c-2.1620979-1.6758001-5.2440987-2.4893-8.0184975-2.1309001
		C44.398407,1.1210999,41.4970093,0,38.4853096,0c-3.0107002,0-5.9121017,1.1210999-7.5908012,2.8954999
		C28.1181087,2.5371001,25.0380096,3.3506,22.8749084,5.0264001c-2.1639996,1.6787-3.2479992,4.0800996-2.9139996,6.3144002
		c-2.2626991,1.3456993-3.6856003,3.6679993-3.6856003,6.1055002c0,0.6532993,0.2041016,1.1807003,0.6065006,1.5644989
		c0.2933998,0.2810001,0.6450005,0.4399014,1.0331993,0.529501c-0.0004997,0.0137005-0.0077991,0.0249996-0.0077991,0.0387993
		v3.9752007c-3.1226006-0.5046997-10.9540997-1.3593006-12.9356003,2.353899
		c-2.3808,4.4668007-2.0537,19.3866997-0.0234003,23.7364006c0.9443002,2.0214005,3.3730006,2.6240005,6.0625148,2.6230011
		c2.3825855,0,4.960885-0.4706993,6.8964853-0.8469009v3.4571991C17.9072094,59.9081993,21.9990082,64,27.0292091,64h22.9130974
		c5.0303001,0,9.1221008-4.0918007,9.1221008-9.1221008V19.5790997c0-0.0137005-0.0072975-0.0249996-0.0078011-0.038599
		c0.3882027-0.0897007,0.7397003-0.2487011,1.0332031-0.5297012C60.4921074,18.6270008,60.696209,18.0995998,60.696209,17.4463005z
		 M21.5302086,12.7695999c0.455101-0.2129002,0.6816998-0.7305002,0.5293007-1.2089996
		c-0.5233994-1.6416006,0.2782993-3.5860004,2.0410004-4.9541001c1.8534985-1.4356003,4.6651001-2.1016002,6.9990997-1.6543002
		C31.4677238,5.0225,31.8447247,4.8808999,32.076107,4.585C33.281208,3.0390999,35.8564072,2,38.4853096,2
		c2.6288986,0,5.2050972,1.0390999,6.4101982,2.585c0.2313995,0.2948999,0.6093025,0.4355001,0.9765015,0.3671999
		c2.3349991-0.4473,5.1455002,0.2186999,6.9981003,1.6543002c1.7636147,1.3680997,2.5653992,3.3124995,2.0419998,4.9541001
		c-0.1523857,0.4784994,0.0741997,0.9960995,0.5293007,1.2089996c1.9774971,0.9266996,3.2547989,2.7616997,3.2547989,4.6767006
		c0,0.0663986-0.0058022,0.1084003-0.0028992,0.1231003c-0.235302,0.107399-1.0039024,0.0721989-1.5185013,0.049799
		c-1.3370018-0.0644989-2.998085-0.1357994-4.3046989,0.8779011c-1.8496017,1.4345989-4.6631012,2.1015987-6.9981003,1.6542988
		c-0.3652-0.0683994-0.7441025,0.0723-0.9765015,0.3672009c-1.1162987,1.4335995-3.5732994,2.3232002-6.4101982,2.3232002
		c-2.8369026,0-5.2929993-0.8896008-6.4092026-2.3232002c-0.1923828-0.2451-0.4843826-0.3848-0.7889977-0.3848
		c-0.0625,0-0.125,0.0058994-0.1875,0.0175991c-2.335001,0.4482002-5.1485004-0.2187996-6.9981003-1.6542988
		c-1.3076-1.0137005-2.9687004-0.9424-4.3047009-0.8779011c-0.538084,0.0223999-1.3505993,0.0594997-1.5038986-0.0146999
		c-0.0010014,0-0.017601-0.0438995-0.017601-0.1581993C18.2753086,15.5312996,19.5527248,13.6962996,21.5302086,12.7695999z
		 M6.7607241,48.7988014c-1.7432146-3.7334023-2.0527143-18.1445007-0.0244145-21.9492016
		c1.1657-2.1842995,7.1547999-1.9676991,11.1709003-1.2719002v23.8053989
		C14.8803091,49.9737015,7.9355092,51.3162994,6.7607241,48.7988014z M49.9423065,62H27.0292091
		c-3.9267006,0-7.1219997-3.1953011-7.1219997-7.1221008V19.6154003c1.1107998-0.0475006,2.2485142-0.0963001,2.9676991,0.4617996
		c2.1631012,1.6777,5.2569008,2.4813995,8.022501,2.1308002c1.602499,1.6592007,4.3817997,2.6338005,7.5879002,2.6338005
		s5.9862976-0.9745998,7.5888977-2.6338005c2.7616997,0.3505993,5.860302-0.4540997,8.0223999-2.1308002
		c0.7201996-0.5580997,1.858902-0.5093002,2.9678001-0.4617996v35.2624969C57.0644073,58.8046989,53.8691101,62,49.9423065,62z"/>
</g>
<g>
</g>
<g>
</g>
<g>
</g>
<g>
</g>
<g>
</g>
<g>
</g>
<g>
</g>
<g>
</g>
<g>
</g>
<g>
</g>
<g>
</g>
<g>
</g>
<g>
</g>
<g>
</g>
<g>
</g>
</svg>
