<?xml version="1.0" ?><svg enable-background="new 0 0 256 256" id="Layer_1" version="1.1" viewBox="0 0 256 256" xml:space="preserve" xmlns="http://www.w3.org/2000/svg" xmlns:xlink="http://www.w3.org/1999/xlink"><g><path d="M65.5,140.8l-6.8-3.7C60.8,138.1,63,139.3,65.5,140.8z" fill="none"/><path d="M105,152c2.2,3,4.4,6,6.4,9.2c-10,3.8-16.7,6.9-16.7,6.9c-1.6-2.8-3.5-5.4-5.6-7.8" fill="none" opacity="0.2"/><path d="   M58.7,137.2c-32.4-14.9-28.6,32.4-22.4,84l-13.7,0.2C25.7,186.4,18.1,148,4,107.4L58.7,137.2z" fill="none" stroke="#434A54" stroke-linecap="round" stroke-linejoin="round" stroke-miterlimit="10" stroke-width="8"/><path d="   M65.5,140.8l-6.8-3.7C60.8,138.1,63,139.3,65.5,140.8z" fill="none" stroke="#434A54" stroke-linecap="round" stroke-linejoin="round" stroke-miterlimit="10" stroke-width="8"/><path d="   M69.3,118.3c-1,7.3-2.3,14.8-3.9,22.6c-2.4-1.5-4.7-2.7-6.8-3.7L4,107.4c3-36.2,15.4-61.6,40.3-72.8c6.8,3.8,12.2,8.9,16.2,15H36.2   L39,60.7h27.2C71.9,76.1,72.3,95.8,69.3,118.3z" fill="none" stroke="#434A54" stroke-linecap="round" stroke-linejoin="round" stroke-miterlimit="10" stroke-width="8"/><polygon fill="none" points="   158.3,49.5 158.3,60.7 39,60.7 36.2,49.5  " stroke="#434A54" stroke-linecap="round" stroke-linejoin="round" stroke-miterlimit="10" stroke-width="8"/><path d="   M238,204.8c0,0-49.4,18.6-83,16.5c-33.6-2.2-51.2-37.3-60.3-53.1c0,0,6.7-3.1,16.7-6.9c17-6.5,43.6-14.9,63-13.2   c30.8,2.8,49.3,21.8,51.7,23.9c2.4,2.1,6.7,8.3,7.9,11S238,204.8,238,204.8z" fill="none" stroke="#434A54" stroke-linecap="round" stroke-linejoin="round" stroke-miterlimit="10" stroke-width="8"/><path d="   M252,198.6l-14,6.2c0,0-2.9-19.3-4.1-21.9l17.3,0.8L252,198.6z" fill="none" stroke="#434A54" stroke-linecap="round" stroke-linejoin="round" stroke-miterlimit="10" stroke-width="8"/><path d="   M111.4,161.2c-10,3.8-16.7,6.9-16.7,6.9c-9.2-15.8-29.3-27.3-29.3-27.3c1.6-7.8,2.9-15.3,3.9-22.6   C86.6,129.7,100.4,144.2,111.4,161.2z" fill="none" stroke="#434A54" stroke-linecap="round" stroke-linejoin="round" stroke-miterlimit="10" stroke-width="8"/></g></svg>